<svg xmlns="http://www.w3.org/2000/svg" height="24" version="1.2" viewBox="0 0 24 24" width="24"><g fill="#fcffff"><path d="M3.11 8.17H7c.82 0 1.55.43 2.06 1.1.36-.66.8-1.28 1.32-1.84A4.72 4.72 0 007 5.94H3.11a1.11 1.11 0 100 2.23zM11.65 11.62c.61-1.84 2.5-3.45 4.05-3.45h2.05L16.3 9.6a1.11 1.11 0 101.57 1.57L22 7.06l-4.12-4.12a1.11 1.11 0 10-1.57 1.57l1.44 1.43H15.7c-2.52 0-5.23 2.19-6.16 4.98l-.52 1.57c-.72 2.14-2.3 3.45-3.13 3.45H3.1a1.11 1.11 0 100 2.23H5.9c2.04 0 4.3-2.14 5.24-4.98l.52-1.57z"/><path d="M16.31 12.94a1.11 1.11 0 000 1.57l1.44 1.43h-2.6c-1.41 0-2.59-.99-3-2.34-.28.84-.69 1.67-1.2 2.43a5.28 5.28 0 004.2 2.14h2.6L16.3 19.6a1.11 1.11 0 101.57 1.57L22 17.06l-4.12-4.12a1.11 1.11 0 00-1.57 0z"/></g></svg>