<svg height="300" viewBox="0 0 300 300" width="300" xmlns="http://www.w3.org/2000/svg"><path d="M150.52 15.4c-74.56 0-135 60.44-135 135 0 74.55 60.44 135 135 135s135-60.45 135-135c0-74.56-60.44-135-135-135zm0 250.91c-64.02 0-115.91-51.9-115.91-115.91S86.5 34.49 150.52 34.49c64.01 0 115.91 51.9 115.91 115.9s-51.9 115.92-115.91 115.92z" fill="#44B39B"/><path d="M254.95 150.4c0 57.67-46.76 104.43-104.43 104.43-57.68 0-104.43-46.76-104.43-104.43 0-57.67 46.75-104.43 104.43-104.43 57.67 0 104.43 46.75 104.43 104.43z" fill="#44B39B"/><path fill="#FFF" d="M196.33 220.88l-45.8-24.08-45.81 24.07 8.75-51-37.06-36.11 51.21-7.44 22.9-46.4 22.9 46.4 51.21 7.44-37.06 36.11z"/></svg>